#N canvas 0 0 944 982 10;
#X declare -lib mrpeach;
#X obj 67 17 import mrpeach;
#X msg 75 544 connect localhost 6666;
#X msg 93 573 disconnect;
#X floatatom 241 514 5 0 0 0 - - -;
#X msg 241 545 send /test \$1;
#X obj 244 577 packOSC;
#X obj 75 666 udpsend;
#X obj 241 461 metro 200;
#X obj 241 437 tgl 15 0 empty empty empty 17 7 0 10 -262144 -1 -1 0
1;
#X obj 241 485 bng 15 250 50 0 empty empty empty 17 7 0 10 -262144
-1 -1;
#X obj 498 32 adc~;
#X obj 513 96 tgl 15 0 empty empty empty 17 7 0 10 -262144 -1 -1 0
1;
#X floatatom 513 118 5 0 0 0 - - -;
#X obj 498 142 *~;
#X floatatom 498 215 5 0 0 0 - - -;
#X text 455 215 pitch;
#X obj 498 183 sigmund~ hop 4096 pitch env;
#X obj 500 320 >;
#X obj 500 353 tgl 15 0 empty empty empty 17 7 0 10 -262144 -1 -1 0
1;
#X floatatom 515 294 5 0 0 0 - - -;
#X obj 515 248 loadbang;
#X msg 516 273 70;
#X obj 500 387 change;
#X obj 500 418 moses 1;
#X obj 452 459 bng 15 250 50 0 empty empty empty 17 7 0 10 -262144
-1 -1;
#X floatatom 516 476 5 0 0 0 - - -;
#X obj 451 507 print porn;
#X obj 73 517 loadbang;
#X obj 77 114 dsp;
#X obj 77 89 tgl 15 0 empty empty empty 17 7 0 10 -262144 -1 -1 0 1
;
#X obj 77 63 loadbang;
#X obj 512 66 loadbang;
#X connect 1 0 6 0;
#X connect 2 0 6 0;
#X connect 3 0 4 0;
#X connect 4 0 5 0;
#X connect 5 0 6 0;
#X connect 7 0 9 0;
#X connect 8 0 7 0;
#X connect 9 0 3 0;
#X connect 10 0 13 0;
#X connect 11 0 12 0;
#X connect 12 0 13 1;
#X connect 13 0 16 0;
#X connect 14 0 17 0;
#X connect 16 0 14 0;
#X connect 17 0 18 0;
#X connect 18 0 22 0;
#X connect 19 0 17 1;
#X connect 20 0 21 0;
#X connect 21 0 19 0;
#X connect 22 0 23 0;
#X connect 23 0 25 0;
#X connect 23 1 24 0;
#X connect 23 1 25 0;
#X connect 24 0 26 0;
#X connect 24 0 3 0;
#X connect 27 0 1 0;
#X connect 29 0 28 0;
#X connect 30 0 29 0;
#X connect 31 0 11 0;
