#N canvas 605 96 549 300 10;
#X declare -lib mrpeach;
#X obj 94 23 import mrpeach;
#X msg 63 66 connect localhost 6666;
#X msg 94 124 disconnect;
#X floatatom 242 119 5 0 0 0 - - -;
#X msg 242 150 send /test \$1;
#X obj 245 182 packOSC;
#X obj 65 208 udpsend;
#X msg 256 83 bang;
#X obj 395 84 metro 200;
#X obj 356 22 tgl 15 0 empty empty empty 17 7 0 10 -262144 -1 -1 0
1;
#X obj 327 99 bng 15 250 50 0 empty empty empty 17 7 0 10 -262144 -1
-1;
#X connect 1 0 6 0;
#X connect 2 0 6 0;
#X connect 3 0 4 0;
#X connect 4 0 5 0;
#X connect 5 0 6 0;
#X connect 7 0 3 0;
#X connect 8 0 10 0;
#X connect 9 0 8 0;
#X connect 10 0 3 0;
